<svg xmlns="http://www.w3.org/2000/svg" width="1920" height="1080"><path d="M142,1271L-216,1273L668,1293Z" fill="#794037" stroke="#794037" stroke-width="1.51"/><path d="M389,1271L142,1271L668,1293Z" fill="#84584a" stroke="#84584a" stroke-width="1.51"/><path d="M744,1283L668,1293L904,1277Z" fill="#897d76" stroke="#897d76" stroke-width="1.51"/><path d="M904,1277L668,1293L1177,1285Z" fill="#8a8785" stroke="#8a8785" stroke-width="1.51"/><path d="M1177,1285L668,1293L1239,1290Z" fill="#848484" stroke="#848484" stroke-width="1.51"/><path d="M1228,-199L1351,-192L1498,-192Z" fill="#a96e6f" stroke="#a96e6f" stroke-width="1.51"/><path d="M1498,-192L1646,-191L1745,-203Z" fill="#8e5557" stroke="#8e5557" stroke-width="1.51"/><path d="M1228,-199L1498,-192L1745,-203Z" fill="#9c6364" stroke="#9c6364" stroke-width="1.51"/><path d="M989,-206L1228,-199L1745,-203Z" fill="#aa7071" stroke="#aa7071" stroke-width="1.51"/><path d="M1504,1272L1239,1290L1836,1289Z" fill="#626262" stroke="#626262" stroke-width="1.51"/><path d="M1589,1259L1504,1272L1836,1289Z" fill="#595959" stroke="#595959" stroke-width="1.51"/><path d="M989,-206L1745,-203L1996,-204Z" fill="#925a5c" stroke="#925a5c" stroke-width="1.51"/><path d="M518,-209L989,-206L1996,-204Z" fill="#b57a7c" stroke="#b57a7c" stroke-width="1.51"/><path d="M1947,209L1964,276L2095,294Z" fill="#957364" stroke="#957364" stroke-width="1.51"/><path d="M2095,294L1993,406L2104,437Z" fill="#8e7d74" stroke="#8e7d74" stroke-width="1.51"/><path d="M1995,877L1988,1037L2108,1035Z" fill="#606060" stroke="#606060" stroke-width="1.51"/><path d="M1985,-24L2100,46L2109,-98Z" fill="#763832" stroke="#763832" stroke-width="1.51"/><path d="M2108,1035L1988,1130L2116,1177Z" fill="#454545" stroke="#454545" stroke-width="1.51"/><path d="M1943,1257L1836,1289L2116,1223Z" fill="#383838" stroke="#383838" stroke-width="1.51"/><path d="M2075,516L1958,660L2117,671Z" fill="#8a8a8a" stroke="#8a8a8a" stroke-width="1.51"/><path d="M2104,437L2075,516L2117,671Z" fill="#8a8a8a" stroke="#8a8a8a" stroke-width="1.51"/><path d="M2117,671L1971,764L2120,819Z" fill="#7a7a7a" stroke="#7a7a7a" stroke-width="1.51"/><path d="M2116,1177L2116,1223L2122,897Z" fill="#424242" stroke="#424242" stroke-width="1.51"/><path d="M2120,819L1995,877L2122,897Z" fill="#6c6c6c" stroke="#6c6c6c" stroke-width="1.51"/><path d="M1995,877L2108,1035L2122,897Z" fill="#616161" stroke="#616161" stroke-width="1.51"/><path d="M2108,1035L2116,1177L2122,897Z" fill="#4d4d4d" stroke="#4d4d4d" stroke-width="1.51"/><path d="M1947,209L2095,294L2130,199Z" fill="#8d6858" stroke="#8d6858" stroke-width="1.51"/><path d="M2006,92L1947,209L2130,199Z" fill="#8c5e50" stroke="#8c5e50" stroke-width="1.51"/><path d="M2100,46L2006,92L2130,199Z" fill="#814e42" stroke="#814e42" stroke-width="1.51"/><path d="M2095,294L2104,437L2130,199Z" fill="#886d61" stroke="#886d61" stroke-width="1.51"/><path d="M2123,-165L2109,-98L2130,199Z" fill="#70322d" stroke="#70322d" stroke-width="1.51"/><path d="M2109,-98L2100,46L2130,199Z" fill="#773e35" stroke="#773e35" stroke-width="1.51"/><path d="M2104,437L2117,671L2130,199Z" fill="#877d77" stroke="#877d77" stroke-width="1.51"/><path d="M2120,819L2122,897L2130,199Z" fill="#7e7e7e" stroke="#7e7e7e" stroke-width="1.51"/><path d="M2117,671L2120,819L2130,199Z" fill="#858585" stroke="#858585" stroke-width="1.51"/><path d="M1988,1037L1988,1130L2108,1035Z" fill="#525252" stroke="#525252" stroke-width="1.51"/><path d="M1958,660L1971,764L2117,671Z" fill="#878787" stroke="#878787" stroke-width="1.51"/><path d="M1996,-204L2109,-98L2123,-165Z" fill="#5f2728" stroke="#5f2728" stroke-width="1.51"/><path d="M1971,764L1995,877L2120,819Z" fill="#787878" stroke="#787878" stroke-width="1.51"/><path d="M2116,1177L1988,1130L2116,1223Z" fill="#3a3a3a" stroke="#3a3a3a" stroke-width="1.51"/><path d="M1988,1130L1943,1257L2116,1223Z" fill="#3b3b3b" stroke="#3b3b3b" stroke-width="1.51"/><path d="M1996,-204L1985,-24L2109,-98Z" fill="#70302f" stroke="#70302f" stroke-width="1.51"/><path d="M1993,406L2075,516L2104,437Z" fill="#908782" stroke="#908782" stroke-width="1.51"/><path d="M1942,518L1958,660L2075,516Z" fill="#969696" stroke="#969696" stroke-width="1.51"/><path d="M1964,276L1993,406L2095,294Z" fill="#947b6f" stroke="#947b6f" stroke-width="1.51"/><path d="M1985,-24L2006,92L2100,46Z" fill="#81473d" stroke="#81473d" stroke-width="1.51"/><path d="M1993,406L1942,518L2075,516Z" fill="#96908c" stroke="#96908c" stroke-width="1.51"/><path d="M1885,1162L1943,1257L1988,1130Z" fill="#474747" stroke="#474747" stroke-width="1.51"/><path d="M1964,276L1870,384L1993,406Z" fill="#9e897f" stroke="#9e897f" stroke-width="1.51"/><path d="M1971,764L1859,819L1995,877Z" fill="#828282" stroke="#828282" stroke-width="1.51"/><path d="M1876,1027L1988,1037L1995,877Z" fill="#6a6a6a" stroke="#6a6a6a" stroke-width="1.51"/><path d="M1865,875L1876,1027L1995,877Z" fill="#777777" stroke="#777777" stroke-width="1.51"/><path d="M1745,-203L1851,-151L1996,-204Z" fill="#733c3d" stroke="#733c3d" stroke-width="1.51"/><path d="M1890,-54L1985,-24L1996,-204Z" fill="#7d3a37" stroke="#7d3a37" stroke-width="1.51"/><path d="M1851,-151L1890,-54L1996,-204Z" fill="#783b3b" stroke="#783b3b" stroke-width="1.51"/><path d="M1985,-24L1861,81L2006,92Z" fill="#8d5147" stroke="#8d5147" stroke-width="1.51"/><path d="M1861,81L1947,209L2006,92Z" fill="#956254" stroke="#956254" stroke-width="1.51"/><path d="M1890,-54L1861,81L1985,-24Z" fill="#8d4e46" stroke="#8d4e46" stroke-width="1.51"/><path d="M1988,1037L1876,1027L1988,1130Z" fill="#5b5b5b" stroke="#5b5b5b" stroke-width="1.51"/><path d="M1876,1027L1885,1162L1988,1130Z" fill="#585858" stroke="#585858" stroke-width="1.51"/><path d="M1870,384L1942,518L1993,406Z" fill="#9f958e" stroke="#9f958e" stroke-width="1.51"/><path d="M1859,819L1865,875L1995,877Z" fill="#828282" stroke="#828282" stroke-width="1.51"/><path d="M1942,518L1850,662L1958,660Z" fill="#9b9b9b" stroke="#9b9b9b" stroke-width="1.51"/><path d="M1861,81L1881,213L1947,209Z" fill="#9d6f60" stroke="#9d6f60" stroke-width="1.51"/><path d="M1821,549L1850,662L1942,518Z" fill="#a4a4a4" stroke="#a4a4a4" stroke-width="1.51"/><path d="M1827,324L1870,384L1964,276Z" fill="#a58c80" stroke="#a58c80" stroke-width="1.51"/><path d="M1958,660L1850,662L1971,764Z" fill="#939393" stroke="#939393" stroke-width="1.51"/><path d="M1850,662L1859,819L1971,764Z" fill="#909090" stroke="#909090" stroke-width="1.51"/><path d="M1947,209L1881,213L1964,276Z" fill="#9d7867" stroke="#9d7867" stroke-width="1.51"/><path d="M1881,213L1827,324L1964,276Z" fill="#a38374" stroke="#a38374" stroke-width="1.51"/><path d="M1870,384L1821,549L1942,518Z" fill="#a7a19e" stroke="#a7a19e" stroke-width="1.51"/><path d="M1885,1162L1836,1289L1943,1257Z" fill="#444444" stroke="#444444" stroke-width="1.51"/><path d="M1850,662L1747,765L1859,819Z" fill="#9a9a9a" stroke="#9a9a9a" stroke-width="1.51"/><path d="M1765,72L1737,210L1861,81Z" fill="#a87365" stroke="#a87365" stroke-width="1.51"/><path d="M1756,393L1821,549L1870,384Z" fill="#afa59f" stroke="#afa59f" stroke-width="1.51"/><path d="M1865,875L1734,861L1876,1027Z" fill="#828282" stroke="#828282" stroke-width="1.51"/><path d="M1734,861L1708,1054L1876,1027Z" fill="#808080" stroke="#808080" stroke-width="1.51"/><path d="M1861,81L1737,210L1881,213Z" fill="#a77868" stroke="#a77868" stroke-width="1.51"/><path d="M1768,261L1827,324L1881,213Z" fill="#ac8a7a" stroke="#ac8a7a" stroke-width="1.51"/><path d="M1757,1234L1836,1289L1885,1162Z" fill="#4c4c4c" stroke="#4c4c4c" stroke-width="1.51"/><path d="M1876,1027L1764,1105L1885,1162Z" fill="#626262" stroke="#626262" stroke-width="1.51"/><path d="M1851,-151L1749,-57L1890,-54Z" fill="#8f4946" stroke="#8f4946" stroke-width="1.51"/><path d="M1765,72L1861,81L1890,-54Z" fill="#9a5c52" stroke="#9a5c52" stroke-width="1.51"/><path d="M1749,-57L1765,72L1890,-54Z" fill="#9b5951" stroke="#9b5951" stroke-width="1.51"/><path d="M1764,1105L1757,1234L1885,1162Z" fill="#5a5a5a" stroke="#5a5a5a" stroke-width="1.51"/><path d="M1737,210L1768,261L1881,213Z" fill="#af8776" stroke="#af8776" stroke-width="1.51"/><path d="M1757,1234L1589,1259L1836,1289Z" fill="#525252" stroke="#525252" stroke-width="1.51"/><path d="M1708,1054L1764,1105L1876,1027Z" fill="#6f6f6f" stroke="#6f6f6f" stroke-width="1.51"/><path d="M1827,324L1756,393L1870,384Z" fill="#af9b91" stroke="#af9b91" stroke-width="1.51"/><path d="M1821,549L1753,558L1850,662Z" fill="#ababab" stroke="#ababab" stroke-width="1.51"/><path d="M1859,819L1734,861L1865,875Z" fill="#8e8e8e" stroke="#8e8e8e" stroke-width="1.51"/><path d="M1756,393L1753,558L1821,549Z" fill="#b4b0ad" stroke="#b4b0ad" stroke-width="1.51"/><path d="M1711,686L1747,765L1850,662Z" fill="#a6a6a6" stroke="#a6a6a6" stroke-width="1.51"/><path d="M1747,765L1734,861L1859,819Z" fill="#979797" stroke="#979797" stroke-width="1.51"/><path d="M1753,558L1711,686L1850,662Z" fill="#acacac" stroke="#acacac" stroke-width="1.51"/><path d="M1745,-203L1749,-57L1851,-151Z" fill="#8a4b49" stroke="#8a4b49" stroke-width="1.51"/><path d="M1768,261L1756,393L1827,324Z" fill="#b2998c" stroke="#b2998c" stroke-width="1.51"/><path d="M518,-209L773,-180L989,-206Z" fill="#c07973" stroke="#c07973" stroke-width="1.51"/><path d="M1635,916L1643,1042L1708,1054Z" fill="#898989" stroke="#898989" stroke-width="1.51"/><path d="M1635,916L1708,1054L1734,861Z" fill="#909090" stroke="#909090" stroke-width="1.51"/><path d="M1646,-191L1656,-59L1745,-203Z" fill="#935554" stroke="#935554" stroke-width="1.51"/><path d="M1656,-59L1647,65L1749,-57Z" fill="#ab675f" stroke="#ab675f" stroke-width="1.51"/><path d="M1745,-203L1656,-59L1749,-57Z" fill="#9a5552" stroke="#9a5552" stroke-width="1.51"/><path d="M1649,567L1711,686L1753,558Z" fill="#b8b8b8" stroke="#b8b8b8" stroke-width="1.51"/><path d="M1649,567L1753,558L1756,393Z" fill="#bcb8b6" stroke="#bcb8b6" stroke-width="1.51"/><path d="M1627,387L1649,567L1756,393Z" fill="#c2b8b2" stroke="#c2b8b2" stroke-width="1.51"/><path d="M1595,1125L1757,1234L1764,1105Z" fill="#686868" stroke="#686868" stroke-width="1.51"/><path d="M1708,1054L1595,1125L1764,1105Z" fill="#757575" stroke="#757575" stroke-width="1.51"/><path d="M1636,186L1737,210L1765,72Z" fill="#b68474" stroke="#b68474" stroke-width="1.51"/><path d="M1647,65L1636,186L1765,72Z" fill="#b67d70" stroke="#b67d70" stroke-width="1.51"/><path d="M1749,-57L1647,65L1765,72Z" fill="#aa6960" stroke="#aa6960" stroke-width="1.51"/><path d="M1737,210L1580,275L1768,261Z" fill="#bd9887" stroke="#bd9887" stroke-width="1.51"/><path d="M1580,275L1627,387L1768,261Z" fill="#c3a698" stroke="#c3a698" stroke-width="1.51"/><path d="M1627,387L1756,393L1768,261Z" fill="#bca59a" stroke="#bca59a" stroke-width="1.51"/><path d="M1595,1125L1589,1259L1757,1234Z" fill="#656565" stroke="#656565" stroke-width="1.51"/><path d="M1636,186L1580,275L1737,210Z" fill="#c29887" stroke="#c29887" stroke-width="1.51"/><path d="M1625,818L1734,861L1747,765Z" fill="#a1a1a1" stroke="#a1a1a1" stroke-width="1.51"/><path d="M1711,686L1625,818L1747,765Z" fill="#a9a9a9" stroke="#a9a9a9" stroke-width="1.51"/><path d="M1649,567L1605,634L1711,686Z" fill="#bbbbbb" stroke="#bbbbbb" stroke-width="1.51"/><path d="M1643,1042L1595,1125L1708,1054Z" fill="#7d7d7d" stroke="#7d7d7d" stroke-width="1.51"/><path d="M1625,818L1635,916L1734,861Z" fill="#a0a0a0" stroke="#a0a0a0" stroke-width="1.51"/><path d="M1605,634L1625,818L1711,686Z" fill="#b4b4b4" stroke="#b4b4b4" stroke-width="1.51"/><path d="M1354,1252L1239,1290L1504,1272Z" fill="#727272" stroke="#727272" stroke-width="1.51"/><path d="M1605,634L1522,683L1625,818Z" fill="#bbbbbb" stroke="#bbbbbb" stroke-width="1.51"/><path d="M1635,916L1500,1032L1643,1042Z" fill="#929292" stroke="#929292" stroke-width="1.51"/><path d="M1526,-94L1494,91L1647,65Z" fill="#bd7a70" stroke="#bd7a70" stroke-width="1.51"/><path d="M1509,141L1636,186L1647,65Z" fill="#c18b7c" stroke="#c18b7c" stroke-width="1.51"/><path d="M1627,387L1540,409L1649,567Z" fill="#cac0bb" stroke="#cac0bb" stroke-width="1.51"/><path d="M1540,409L1524,565L1649,567Z" fill="#cdcbc9" stroke="#cdcbc9" stroke-width="1.51"/><path d="M1526,-94L1647,65L1656,-59Z" fill="#b26c64" stroke="#b26c64" stroke-width="1.51"/><path d="M1646,-191L1526,-94L1656,-59Z" fill="#a5605d" stroke="#a5605d" stroke-width="1.51"/><path d="M1522,683L1492,803L1625,818Z" fill="#b8b8b8" stroke="#b8b8b8" stroke-width="1.51"/><path d="M1625,818L1509,898L1635,916Z" fill="#a6a6a6" stroke="#a6a6a6" stroke-width="1.51"/><path d="M1509,898L1500,1032L1635,916Z" fill="#9e9e9e" stroke="#9e9e9e" stroke-width="1.51"/><path d="M1498,-192L1526,-94L1646,-191Z" fill="#9f615f" stroke="#9f615f" stroke-width="1.51"/><path d="M1494,91L1509,141L1647,65Z" fill="#c4897c" stroke="#c4897c" stroke-width="1.51"/><path d="M1524,565L1605,634L1649,567Z" fill="#c6c6c6" stroke="#c6c6c6" stroke-width="1.51"/><path d="M1534,1116L1595,1125L1643,1042Z" fill="#808080" stroke="#808080" stroke-width="1.51"/><path d="M1500,1032L1534,1116L1643,1042Z" fill="#898989" stroke="#898989" stroke-width="1.51"/><path d="M1580,275L1540,409L1627,387Z" fill="#cbb6ab" stroke="#cbb6ab" stroke-width="1.51"/><path d="M1509,141L1580,275L1636,186Z" fill="#c99c8b" stroke="#c99c8b" stroke-width="1.51"/><path d="M1534,1116L1589,1259L1595,1125Z" fill="#737373" stroke="#737373" stroke-width="1.51"/><path d="M1492,803L1509,898L1625,818Z" fill="#b0b0b0" stroke="#b0b0b0" stroke-width="1.51"/><path d="M1488,280L1540,409L1580,275Z" fill="#d1b5a8" stroke="#d1b5a8" stroke-width="1.51"/><path d="M1509,141L1488,280L1580,275Z" fill="#d0a796" stroke="#d0a796" stroke-width="1.51"/><path d="M1534,1116L1504,1272L1589,1259Z" fill="#6d6d6d" stroke="#6d6d6d" stroke-width="1.51"/><path d="M1524,565L1522,683L1605,634Z" fill="#c7c7c7" stroke="#c7c7c7" stroke-width="1.51"/><path d="M1399,1011L1500,1032L1509,898Z" fill="#a2a2a2" stroke="#a2a2a2" stroke-width="1.51"/><path d="M1392,530L1522,683L1524,565Z" fill="#d2d2d2" stroke="#d2d2d2" stroke-width="1.51"/><path d="M1366,-39L1494,91L1526,-94Z" fill="#c47e75" stroke="#c47e75" stroke-width="1.51"/><path d="M1367,1142L1504,1272L1534,1116Z" fill="#7c7c7c" stroke="#7c7c7c" stroke-width="1.51"/><path d="M1488,280L1406,289L1540,409Z" fill="#d7bdb0" stroke="#d7bdb0" stroke-width="1.51"/><path d="M1406,289L1351,433L1540,409Z" fill="#dccac0" stroke="#dccac0" stroke-width="1.51"/><path d="M1392,530L1524,565L1540,409Z" fill="#d7d2d0" stroke="#d7d2d0" stroke-width="1.51"/><path d="M1351,433L1392,530L1540,409Z" fill="#ddd4ce" stroke="#ddd4ce" stroke-width="1.51"/><path d="M1367,172L1488,280L1509,141Z" fill="#d7a897" stroke="#d7a897" stroke-width="1.51"/><path d="M1392,530L1345,692L1522,683Z" fill="#d4d4d4" stroke="#d4d4d4" stroke-width="1.51"/><path d="M1500,1032L1367,1142L1534,1116Z" fill="#8b8b8b" stroke="#8b8b8b" stroke-width="1.51"/><path d="M1366,-39L1353,49L1494,91Z" fill="#ce8b80" stroke="#ce8b80" stroke-width="1.51"/><path d="M1351,-192L1366,-39L1498,-192Z" fill="#b4706e" stroke="#b4706e" stroke-width="1.51"/><path d="M1367,1142L1354,1252L1504,1272Z" fill="#797979" stroke="#797979" stroke-width="1.51"/><path d="M1345,692L1492,803L1522,683Z" fill="#c8c8c8" stroke="#c8c8c8" stroke-width="1.51"/><path d="M1498,-192L1366,-39L1526,-94Z" fill="#b76f6b" stroke="#b76f6b" stroke-width="1.51"/><path d="M1392,889L1399,1011L1509,898Z" fill="#adadad" stroke="#adadad" stroke-width="1.51"/><path d="M1367,172L1406,289L1488,280Z" fill="#dcb5a4" stroke="#dcb5a4" stroke-width="1.51"/><path d="M1345,692L1367,819L1492,803Z" fill="#c6c6c6" stroke="#c6c6c6" stroke-width="1.51"/><path d="M1399,1011L1367,1142L1500,1032Z" fill="#979797" stroke="#979797" stroke-width="1.51"/><path d="M1492,803L1392,889L1509,898Z" fill="#b5b5b5" stroke="#b5b5b5" stroke-width="1.51"/><path d="M1494,91L1367,172L1509,141Z" fill="#d29a8b" stroke="#d29a8b" stroke-width="1.51"/><path d="M1367,819L1392,889L1492,803Z" fill="#bebebe" stroke="#bebebe" stroke-width="1.51"/><path d="M1353,49L1367,172L1494,91Z" fill="#d5998a" stroke="#d5998a" stroke-width="1.51"/><path d="M1287,620L1345,692L1392,530Z" fill="#dcdcdc" stroke="#dcdcdc" stroke-width="1.51"/><path d="M1287,1128L1367,1142L1399,1011Z" fill="#969696" stroke="#969696" stroke-width="1.51"/><path d="M1392,889L1294,906L1399,1011Z" fill="#b2b2b2" stroke="#b2b2b2" stroke-width="1.51"/><path d="M1264,337L1351,433L1406,289Z" fill="#e4cdc2" stroke="#e4cdc2" stroke-width="1.51"/><path d="M1367,172L1262,218L1406,289Z" fill="#e2b7a5" stroke="#e2b7a5" stroke-width="1.51"/><path d="M1262,218L1264,337L1406,289Z" fill="#e5c3b3" stroke="#e5c3b3" stroke-width="1.51"/><path d="M1351,-192L1273,-29L1366,-39Z" fill="#c97c76" stroke="#c97c76" stroke-width="1.51"/><path d="M1353,49L1278,71L1367,172Z" fill="#da9d8e" stroke="#da9d8e" stroke-width="1.51"/><path d="M1239,983L1287,1128L1399,1011Z" fill="#a3a3a3" stroke="#a3a3a3" stroke-width="1.51"/><path d="M1294,906L1239,983L1399,1011Z" fill="#b1b1b1" stroke="#b1b1b1" stroke-width="1.51"/><path d="M1351,433L1219,553L1392,530Z" fill="#e6e2df" stroke="#e6e2df" stroke-width="1.51"/><path d="M1219,553L1287,620L1392,530Z" fill="#e4e4e4" stroke="#e4e4e4" stroke-width="1.51"/><path d="M1367,819L1294,906L1392,889Z" fill="#bebebe" stroke="#bebebe" stroke-width="1.51"/><path d="M1227,410L1219,553L1351,433Z" fill="#eae1dc" stroke="#eae1dc" stroke-width="1.51"/><path d="M1228,-199L1273,-29L1351,-192Z" fill="#be7a77" stroke="#be7a77" stroke-width="1.51"/><path d="M1273,-29L1353,49L1366,-39Z" fill="#d08a80" stroke="#d08a80" stroke-width="1.51"/><path d="M1345,692L1225,798L1367,819Z" fill="#cecece" stroke="#cecece" stroke-width="1.51"/><path d="M1225,798L1294,906L1367,819Z" fill="#c7c7c7" stroke="#c7c7c7" stroke-width="1.51"/><path d="M1287,1128L1354,1252L1367,1142Z" fill="#878787" stroke="#878787" stroke-width="1.51"/><path d="M1278,71L1262,218L1367,172Z" fill="#e0ab9b" stroke="#e0ab9b" stroke-width="1.51"/><path d="M1264,337L1227,410L1351,433Z" fill="#e8d8cf" stroke="#e8d8cf" stroke-width="1.51"/><path d="M1273,-29L1278,71L1353,49Z" fill="#d79287" stroke="#d79287" stroke-width="1.51"/><path d="M1287,1128L1239,1290L1354,1252Z" fill="#818181" stroke="#818181" stroke-width="1.51"/><path d="M1287,620L1164,676L1345,692Z" fill="#dedede" stroke="#dedede" stroke-width="1.51"/><path d="M1164,676L1225,798L1345,692Z" fill="#d9d9d9" stroke="#d9d9d9" stroke-width="1.51"/><path d="M-31,1260L-216,1273L142,1271Z" fill="#692a2a" stroke="#692a2a" stroke-width="1.51"/><path d="M1040,1244L904,1277L1177,1285Z" fill="#888888" stroke="#888888" stroke-width="1.51"/><path d="M1145,-151L1175,-44L1228,-199Z" fill="#c8827e" stroke="#c8827e" stroke-width="1.51"/><path d="M1262,218L1169,297L1264,337Z" fill="#eccaba" stroke="#eccaba" stroke-width="1.51"/><path d="M1228,-199L1175,-44L1273,-29Z" fill="#d0837e" stroke="#d0837e" stroke-width="1.51"/><path d="M1116,140L1262,218L1278,71Z" fill="#e6af9f" stroke="#e6af9f" stroke-width="1.51"/><path d="M1177,1285L1239,1290L1287,1128Z" fill="#838383" stroke="#838383" stroke-width="1.51"/><path d="M1134,1106L1177,1285L1287,1128Z" fill="#919191" stroke="#919191" stroke-width="1.51"/><path d="M1239,983L1147,1028L1287,1128Z" fill="#a9a9a9" stroke="#a9a9a9" stroke-width="1.51"/><path d="M1147,1028L1134,1106L1287,1128Z" fill="#a3a3a3" stroke="#a3a3a3" stroke-width="1.51"/><path d="M1107,932L1239,983L1294,906Z" fill="#bdbdbd" stroke="#bdbdbd" stroke-width="1.51"/><path d="M1225,798L1107,932L1294,906Z" fill="#c8c8c8" stroke="#c8c8c8" stroke-width="1.51"/><path d="M1134,815L1107,932L1225,798Z" fill="#d0d0d0" stroke="#d0d0d0" stroke-width="1.51"/><path d="M1273,-29L1175,-44L1278,71Z" fill="#d99187" stroke="#d99187" stroke-width="1.51"/><path d="M1175,-44L1123,31L1278,71Z" fill="#de998d" stroke="#de998d" stroke-width="1.51"/><path d="M1219,553L1164,676L1287,620Z" fill="#e6e6e6" stroke="#e6e6e6" stroke-width="1.51"/><path d="M1123,31L1116,140L1278,71Z" fill="#e6a597" stroke="#e6a597" stroke-width="1.51"/><path d="M1173,558L1164,676L1219,553Z" fill="#ebebeb" stroke="#ebebeb" stroke-width="1.51"/><path d="M1173,558L1219,553L1227,410Z" fill="#efebe9" stroke="#efebe9" stroke-width="1.51"/><path d="M989,-206L1145,-151L1228,-199Z" fill="#bd7f7f" stroke="#bd7f7f" stroke-width="1.51"/><path d="M1172,396L1227,410L1264,337Z" fill="#eedcd2" stroke="#eedcd2" stroke-width="1.51"/><path d="M1169,297L1172,396L1264,337Z" fill="#efd7ca" stroke="#efd7ca" stroke-width="1.51"/><path d="M1172,396L1173,558L1227,410Z" fill="#f0e6e1" stroke="#f0e6e1" stroke-width="1.51"/><path d="M1116,140L1169,297L1262,218Z" fill="#eec2b0" stroke="#eec2b0" stroke-width="1.51"/><path d="M1164,676L1134,815L1225,798Z" fill="#d9d9d9" stroke="#d9d9d9" stroke-width="1.51"/><path d="M1107,932L1147,1028L1239,983Z" fill="#bababa" stroke="#bababa" stroke-width="1.51"/><path d="M1134,1106L1040,1244L1177,1285Z" fill="#8f8f8f" stroke="#8f8f8f" stroke-width="1.51"/><path d="M1033,1162L1040,1244L1134,1106Z" fill="#9a9a9a" stroke="#9a9a9a" stroke-width="1.51"/><path d="M1053,744L1134,815L1164,676Z" fill="#dfdfdf" stroke="#dfdfdf" stroke-width="1.51"/><path d="M1116,140L1020,184L1169,297Z" fill="#f3c5b3" stroke="#f3c5b3" stroke-width="1.51"/><path d="M1169,297L994,310L1172,396Z" fill="#f4dbce" stroke="#f4dbce" stroke-width="1.51"/><path d="M994,310L1018,434L1172,396Z" fill="#f8e6db" stroke="#f8e6db" stroke-width="1.51"/><path d="M987,634L1164,676L1173,558Z" fill="#ededed" stroke="#ededed" stroke-width="1.51"/><path d="M988,550L987,634L1173,558Z" fill="#f5f5f5" stroke="#f5f5f5" stroke-width="1.51"/><path d="M1172,396L1018,434L1173,558Z" fill="#f5ece7" stroke="#f5ece7" stroke-width="1.51"/><path d="M1018,434L988,550L1173,558Z" fill="#f9f5f4" stroke="#f9f5f4" stroke-width="1.51"/><path d="M1145,-151L1023,-24L1175,-44Z" fill="#db8d86" stroke="#db8d86" stroke-width="1.51"/><path d="M1020,184L994,310L1169,297Z" fill="#f8d1c1" stroke="#f8d1c1" stroke-width="1.51"/><path d="M1023,-24L1123,31L1175,-44Z" fill="#e1988e" stroke="#e1988e" stroke-width="1.51"/><path d="M1059,904L1107,932L1134,815Z" fill="#cecece" stroke="#cecece" stroke-width="1.51"/><path d="M987,634L1053,744L1164,676Z" fill="#e9e9e9" stroke="#e9e9e9" stroke-width="1.51"/><path d="M1048,80L1116,140L1123,31Z" fill="#eaaa9c" stroke="#eaaa9c" stroke-width="1.51"/><path d="M989,-206L1023,-24L1145,-151Z" fill="#d28a86" stroke="#d28a86" stroke-width="1.51"/><path d="M1025,1029L1134,1106L1147,1028Z" fill="#afafaf" stroke="#afafaf" stroke-width="1.51"/><path d="M1107,932L1025,1029L1147,1028Z" fill="#bbbbbb" stroke="#bbbbbb" stroke-width="1.51"/><path d="M1025,1029L1033,1162L1134,1106Z" fill="#a8a8a8" stroke="#a8a8a8" stroke-width="1.51"/><path d="M1053,744L1059,904L1134,815Z" fill="#d8d8d8" stroke="#d8d8d8" stroke-width="1.51"/><path d="M1023,-24L1048,80L1123,31Z" fill="#e7a196" stroke="#e7a196" stroke-width="1.51"/><path d="M1059,904L1025,1029L1107,932Z" fill="#c4c4c4" stroke="#c4c4c4" stroke-width="1.51"/><path d="M1048,80L1020,184L1116,140Z" fill="#f1b7a8" stroke="#f1b7a8" stroke-width="1.51"/><path d="M989,-206L939,-167L1023,-24Z" fill="#d58d8a" stroke="#d58d8a" stroke-width="1.51"/><path d="M939,-167L924,-30L1023,-24Z" fill="#e5968f" stroke="#e5968f" stroke-width="1.51"/><path d="M987,634L926,699L1053,744Z" fill="#eeeeee" stroke="#eeeeee" stroke-width="1.51"/><path d="M1053,744L893,778L1059,904Z" fill="#dfdfdf" stroke="#dfdfdf" stroke-width="1.51"/><path d="M893,778L922,917L1059,904Z" fill="#d9d9d9" stroke="#d9d9d9" stroke-width="1.51"/><path d="M922,917L1025,1029L1059,904Z" fill="#c9c9c9" stroke="#c9c9c9" stroke-width="1.51"/><path d="M1025,1029L882,1127L1033,1162Z" fill="#acacac" stroke="#acacac" stroke-width="1.51"/><path d="M874,92L1020,184L1048,80Z" fill="#f5b8a9" stroke="#f5b8a9" stroke-width="1.51"/><path d="M1023,-24L924,-30L1048,80Z" fill="#eaa298" stroke="#eaa298" stroke-width="1.51"/><path d="M926,699L893,778L1053,744Z" fill="#eaeae9" stroke="#eaeae9" stroke-width="1.51"/><path d="M924,-30L874,92L1048,80Z" fill="#f0ab9d" stroke="#f0ab9d" stroke-width="1.51"/><path d="M902,265L994,310L1020,184Z" fill="#fdd5c4" stroke="#fdd5c4" stroke-width="1.51"/><path d="M882,1043L882,1127L1025,1029Z" fill="#b5b3b2" stroke="#b5b3b2" stroke-width="1.51"/><path d="M1033,1162L904,1277L1040,1244Z" fill="#939393" stroke="#939393" stroke-width="1.51"/><path d="M994,310L863,395L1018,434Z" fill="#ffece2" stroke="#ffece2" stroke-width="1.51"/><path d="M882,1127L904,1277L1033,1162Z" fill="#9c9b9a" stroke="#9c9b9a" stroke-width="1.51"/><path d="M773,-180L939,-167L989,-206Z" fill="#c78582" stroke="#c78582" stroke-width="1.51"/><path d="M879,522L988,550L1018,434Z" fill="#fffaf8" stroke="#fffaf8" stroke-width="1.51"/><path d="M874,92L860,164L1020,184Z" fill="#f7bdab" stroke="#f7bdab" stroke-width="1.51"/><path d="M922,917L882,1043L1025,1029Z" fill="#c3c2c1" stroke="#c3c2c1" stroke-width="1.51"/><path d="M860,164L902,265L1020,184Z" fill="#fccab7" stroke="#fccab7" stroke-width="1.51"/><path d="M863,395L879,522L1018,434Z" fill="#fff1ea" stroke="#fff1ea" stroke-width="1.51"/><path d="M-37,-207L324,-161L518,-209Z" fill="#ab3c3a" stroke="#ab3c3a" stroke-width="1.51"/><path d="M879,522L987,634L988,550Z" fill="#fcfbfb" stroke="#fcfbfb" stroke-width="1.51"/><path d="M902,265L863,395L994,310Z" fill="#fedfd0" stroke="#fedfd0" stroke-width="1.51"/><path d="M879,522L926,699L987,634Z" fill="#f7f5f3" stroke="#f7f5f3" stroke-width="1.51"/><path d="M819,309L863,395L902,265Z" fill="#fedbca" stroke="#fedbca" stroke-width="1.51"/><path d="M794,999L882,1043L922,917Z" fill="#c5beba" stroke="#c5beba" stroke-width="1.51"/><path d="M893,778L816,805L922,917Z" fill="#ded8d4" stroke="#ded8d4" stroke-width="1.51"/><path d="M816,805L802,898L922,917Z" fill="#d9d0cb" stroke="#d9d0cb" stroke-width="1.51"/><path d="M812,28L874,92L924,-30Z" fill="#eda293" stroke="#eda293" stroke-width="1.51"/><path d="M879,522L814,682L926,699Z" fill="#f6efeb" stroke="#f6efeb" stroke-width="1.51"/><path d="M802,-35L924,-30L939,-167Z" fill="#e39087" stroke="#e39087" stroke-width="1.51"/><path d="M773,-180L802,-35L939,-167Z" fill="#d5877f" stroke="#d5877f" stroke-width="1.51"/><path d="M766,572L814,682L879,522Z" fill="#faf0e9" stroke="#faf0e9" stroke-width="1.51"/><path d="M863,395L803,438L879,522Z" fill="#ffece2" stroke="#ffece2" stroke-width="1.51"/><path d="M882,1127L744,1283L904,1277Z" fill="#958c88" stroke="#958c88" stroke-width="1.51"/><path d="M802,898L794,999L922,917Z" fill="#cec5c0" stroke="#cec5c0" stroke-width="1.51"/><path d="M802,-35L812,28L924,-30Z" fill="#e8988b" stroke="#e8988b" stroke-width="1.51"/><path d="M814,682L893,778L926,699Z" fill="#ece6e3" stroke="#ece6e3" stroke-width="1.51"/><path d="M787,1108L744,1283L882,1127Z" fill="#9f958f" stroke="#9f958f" stroke-width="1.51"/><path d="M860,164L819,309L902,265Z" fill="#fdcdb8" stroke="#fdcdb8" stroke-width="1.51"/><path d="M768,184L819,309L860,164Z" fill="#fbc5ad" stroke="#fbc5ad" stroke-width="1.51"/><path d="M814,682L816,805L893,778Z" fill="#e8dfda" stroke="#e8dfda" stroke-width="1.51"/><path d="M518,-209L690,-156L773,-180Z" fill="#c27268" stroke="#c27268" stroke-width="1.51"/><path d="M787,1108L882,1127L882,1043Z" fill="#b0a8a4" stroke="#b0a8a4" stroke-width="1.51"/><path d="M794,999L787,1108L882,1043Z" fill="#b9afa9" stroke="#b9afa9" stroke-width="1.51"/><path d="M803,438L766,572L879,522Z" fill="#fff0e8" stroke="#fff0e8" stroke-width="1.51"/><path d="M568,1260L389,1271L668,1293Z" fill="#89695b" stroke="#89695b" stroke-width="1.51"/><path d="M768,184L860,164L874,92Z" fill="#f6b7a2" stroke="#f6b7a2" stroke-width="1.51"/><path d="M812,28L768,184L874,92Z" fill="#f2ac98" stroke="#f2ac98" stroke-width="1.51"/><path d="M691,1177L744,1283L787,1108Z" fill="#9c8d85" stroke="#9c8d85" stroke-width="1.51"/><path d="M819,309L803,438L863,395Z" fill="#fee2d2" stroke="#fee2d2" stroke-width="1.51"/><path d="M773,-180L690,-156L802,-35Z" fill="#d48076" stroke="#d48076" stroke-width="1.51"/><path d="M678,558L766,572L803,438Z" fill="#ffede3" stroke="#ffede3" stroke-width="1.51"/><path d="M673,68L768,184L812,28Z" fill="#f0a58f" stroke="#f0a58f" stroke-width="1.51"/><path d="M814,682L659,783L816,805Z" fill="#e8d9d1" stroke="#e8d9d1" stroke-width="1.51"/><path d="M659,783L802,898L816,805Z" fill="#dfd0c8" stroke="#dfd0c8" stroke-width="1.51"/><path d="M768,184L633,328L819,309Z" fill="#fbc9b1" stroke="#fbc9b1" stroke-width="1.51"/><path d="M656,399L803,438L819,309Z" fill="#feddcb" stroke="#feddcb" stroke-width="1.51"/><path d="M633,328L656,399L819,309Z" fill="#fdd2bc" stroke="#fdd2bc" stroke-width="1.51"/><path d="M644,202L633,328L768,184Z" fill="#f9bda1" stroke="#f9bda1" stroke-width="1.51"/><path d="M766,572L629,675L814,682Z" fill="#f4e4da" stroke="#f4e4da" stroke-width="1.51"/><path d="M629,675L659,783L814,682Z" fill="#eddacf" stroke="#eddacf" stroke-width="1.51"/><path d="M-37,-207L35,-179L324,-161Z" fill="#a1252f" stroke="#a1252f" stroke-width="1.51"/><path d="M802,-35L673,68L812,28Z" fill="#e99886" stroke="#e99886" stroke-width="1.51"/><path d="M635,928L794,999L802,898Z" fill="#ccbdb4" stroke="#ccbdb4" stroke-width="1.51"/><path d="M640,1014L787,1108L794,999Z" fill="#baaba3" stroke="#baaba3" stroke-width="1.51"/><path d="M690,-156L638,-51L802,-35Z" fill="#de8273" stroke="#de8273" stroke-width="1.51"/><path d="M638,-51L673,68L802,-35Z" fill="#e58e7c" stroke="#e58e7c" stroke-width="1.51"/><path d="M659,783L635,928L802,898Z" fill="#d9c5bb" stroke="#d9c5bb" stroke-width="1.51"/><path d="M656,399L678,558L803,438Z" fill="#fee3d4" stroke="#fee3d4" stroke-width="1.51"/><path d="M678,558L629,675L766,572Z" fill="#f9e3d8" stroke="#f9e3d8" stroke-width="1.51"/><path d="M635,928L640,1014L794,999Z" fill="#c5b1a7" stroke="#c5b1a7" stroke-width="1.51"/><path d="M640,1014L691,1177L787,1108Z" fill="#ae9c92" stroke="#ae9c92" stroke-width="1.51"/><path d="M673,68L644,202L768,184Z" fill="#f4ad93" stroke="#f4ad93" stroke-width="1.51"/><path d="M640,1014L577,1106L691,1177Z" fill="#ad9588" stroke="#ad9588" stroke-width="1.51"/><path d="M691,1177L668,1293L744,1283Z" fill="#907e74" stroke="#907e74" stroke-width="1.51"/><path d="M656,399L577,448L678,558Z" fill="#fedbca" stroke="#fedbca" stroke-width="1.51"/><path d="M565,-98L638,-51L690,-156Z" fill="#d67668" stroke="#d67668" stroke-width="1.51"/><path d="M518,-209L565,-98L690,-156Z" fill="#c66c60" stroke="#c66c60" stroke-width="1.51"/><path d="M568,1260L668,1293L691,1177Z" fill="#90796e" stroke="#90796e" stroke-width="1.51"/><path d="M577,1106L568,1260L691,1177Z" fill="#9d8275" stroke="#9d8275" stroke-width="1.51"/><path d="M543,903L635,928L659,783Z" fill="#d8bcae" stroke="#d8bcae" stroke-width="1.51"/><path d="M523,65L644,202L673,68Z" fill="#ee9b80" stroke="#ee9b80" stroke-width="1.51"/><path d="M629,675L558,745L659,783Z" fill="#eacdbf" stroke="#eacdbf" stroke-width="1.51"/><path d="M638,-51L523,65L673,68Z" fill="#e68a73" stroke="#e68a73" stroke-width="1.51"/><path d="M577,448L523,500L678,558Z" fill="#fedac9" stroke="#fedac9" stroke-width="1.51"/><path d="M537,669L629,675L678,558Z" fill="#f5d8ca" stroke="#f5d8ca" stroke-width="1.51"/><path d="M523,500L537,669L678,558Z" fill="#fbd9ca" stroke="#fbd9ca" stroke-width="1.51"/><path d="M527,262L633,328L644,202Z" fill="#f9b89b" stroke="#f9b89b" stroke-width="1.51"/><path d="M558,745L543,903L659,783Z" fill="#e0c1b2" stroke="#e0c1b2" stroke-width="1.51"/><path d="M523,65L501,197L644,202Z" fill="#f09e7f" stroke="#f09e7f" stroke-width="1.51"/><path d="M633,328L577,448L656,399Z" fill="#fcd1ba" stroke="#fcd1ba" stroke-width="1.51"/><path d="M543,903L521,1005L635,928Z" fill="#cbaa9b" stroke="#cbaa9b" stroke-width="1.51"/><path d="M565,-98L523,65L638,-51Z" fill="#df7c68" stroke="#df7c68" stroke-width="1.51"/><path d="M635,928L521,1005L640,1014Z" fill="#c5a79a" stroke="#c5a79a" stroke-width="1.51"/><path d="M521,1005L577,1106L640,1014Z" fill="#b99a8c" stroke="#b99a8c" stroke-width="1.51"/><path d="M501,197L527,262L644,202Z" fill="#f6ac8b" stroke="#f6ac8b" stroke-width="1.51"/><path d="M527,262L577,448L633,328Z" fill="#fbc4aa" stroke="#fbc4aa" stroke-width="1.51"/><path d="M537,669L558,745L629,675Z" fill="#efcdbe" stroke="#efcdbe" stroke-width="1.51"/><path d="M35,-179L151,-144L324,-161Z" fill="#ac3134" stroke="#ac3134" stroke-width="1.51"/><path d="M324,-161L431,-161L518,-209Z" fill="#b9554a" stroke="#b9554a" stroke-width="1.51"/><path d="M523,500L451,535L537,669Z" fill="#fbd1c0" stroke="#fbd1c0" stroke-width="1.51"/><path d="M451,535L439,639L537,669Z" fill="#f6cab7" stroke="#f6cab7" stroke-width="1.51"/><path d="M455,759L444,879L543,903Z" fill="#dbb09e" stroke="#dbb09e" stroke-width="1.51"/><path d="M455,759L543,903L558,745Z" fill="#e1baa9" stroke="#e1baa9" stroke-width="1.51"/><path d="M438,-100L523,65L565,-98Z" fill="#da715d" stroke="#da715d" stroke-width="1.51"/><path d="M430,1104L389,1271L568,1260Z" fill="#946d5d" stroke="#946d5d" stroke-width="1.51"/><path d="M401,419L523,500L577,448Z" fill="#fccab3" stroke="#fccab3" stroke-width="1.51"/><path d="M448,293L401,419L577,448Z" fill="#f9c0a4" stroke="#f9c0a4" stroke-width="1.51"/><path d="M527,262L448,293L577,448Z" fill="#f9bb9e" stroke="#f9bb9e" stroke-width="1.51"/><path d="M430,1104L568,1260L577,1106Z" fill="#a17e6f" stroke="#a17e6f" stroke-width="1.51"/><path d="M521,1005L430,1104L577,1106Z" fill="#b28d7d" stroke="#b28d7d" stroke-width="1.51"/><path d="M431,-161L438,-100L518,-209Z" fill="#c15d50" stroke="#c15d50" stroke-width="1.51"/><path d="M518,-209L438,-100L565,-98Z" fill="#c96556" stroke="#c96556" stroke-width="1.51"/><path d="M537,669L455,759L558,745Z" fill="#ebc3b2" stroke="#ebc3b2" stroke-width="1.51"/><path d="M438,-100L389,90L523,65Z" fill="#de755d" stroke="#de755d" stroke-width="1.51"/><path d="M426,193L501,197L523,65Z" fill="#ed9575" stroke="#ed9575" stroke-width="1.51"/><path d="M389,90L426,193L523,65Z" fill="#e8886a" stroke="#e8886a" stroke-width="1.51"/><path d="M444,879L521,1005L543,903Z" fill="#cda594" stroke="#cda594" stroke-width="1.51"/><path d="M439,639L455,759L537,669Z" fill="#eec3b0" stroke="#eec3b0" stroke-width="1.51"/><path d="M444,879L403,1018L521,1005Z" fill="#c59a88" stroke="#c59a88" stroke-width="1.51"/><path d="M403,1018L430,1104L521,1005Z" fill="#b78c7b" stroke="#b78c7b" stroke-width="1.51"/><path d="M401,419L451,535L523,500Z" fill="#fcc8b3" stroke="#fcc8b3" stroke-width="1.51"/><path d="M501,197L448,293L527,262Z" fill="#f6ab88" stroke="#f6ab88" stroke-width="1.51"/><path d="M426,193L448,293L501,197Z" fill="#f3a27f" stroke="#f3a27f" stroke-width="1.51"/><path d="M330,-53L389,90L438,-100Z" fill="#d66452" stroke="#d66452" stroke-width="1.51"/><path d="M330,-53L326,55L389,90Z" fill="#d96954" stroke="#d96954" stroke-width="1.51"/><path d="M304,1220L389,1271L430,1104Z" fill="#936455" stroke="#936455" stroke-width="1.51"/><path d="M301,1119L304,1220L430,1104Z" fill="#9c6a5c" stroke="#9c6a5c" stroke-width="1.51"/><path d="M309,998L403,1018L444,879Z" fill="#c29181" stroke="#c29181" stroke-width="1.51"/><path d="M284,878L309,998L444,879Z" fill="#c89384" stroke="#c89384" stroke-width="1.51"/><path d="M426,193L293,288L448,293Z" fill="#f09d7e" stroke="#f09d7e" stroke-width="1.51"/><path d="M293,288L401,419L448,293Z" fill="#f3a98d" stroke="#f3a98d" stroke-width="1.51"/><path d="M317,522L439,639L451,535Z" fill="#f8c4b3" stroke="#f8c4b3" stroke-width="1.51"/><path d="M401,419L317,522L451,535Z" fill="#f8c0ac" stroke="#f8c0ac" stroke-width="1.51"/><path d="M439,639L306,666L455,759Z" fill="#ebb8a8" stroke="#ebb8a8" stroke-width="1.51"/><path d="M306,666L295,780L455,759Z" fill="#e3ac9c" stroke="#e3ac9c" stroke-width="1.51"/><path d="M295,780L444,879L455,759Z" fill="#dcaa99" stroke="#dcaa99" stroke-width="1.51"/><path d="M336,431L317,522L401,419Z" fill="#f6b6a1" stroke="#f6b6a1" stroke-width="1.51"/><path d="M295,780L284,878L444,879Z" fill="#d59e8f" stroke="#d59e8f" stroke-width="1.51"/><path d="M317,522L306,666L439,639Z" fill="#f1b9a9" stroke="#f1b9a9" stroke-width="1.51"/><path d="M293,288L336,431L401,419Z" fill="#f3ac93" stroke="#f3ac93" stroke-width="1.51"/><path d="M389,90L316,175L426,193Z" fill="#e78669" stroke="#e78669" stroke-width="1.51"/><path d="M316,175L293,288L426,193Z" fill="#eb9071" stroke="#eb9071" stroke-width="1.51"/><path d="M431,-161L324,-161L438,-100Z" fill="#c15549" stroke="#c15549" stroke-width="1.51"/><path d="M324,-161L330,-53L438,-100Z" fill="#c85347" stroke="#c85347" stroke-width="1.51"/><path d="M403,1018L301,1119L430,1104Z" fill="#ab7a6b" stroke="#ab7a6b" stroke-width="1.51"/><path d="M304,1220L142,1271L389,1271Z" fill="#834d42" stroke="#834d42" stroke-width="1.51"/><path d="M309,998L301,1119L403,1018Z" fill="#b17c6e" stroke="#b17c6e" stroke-width="1.51"/><path d="M326,55L316,175L389,90Z" fill="#e1775d" stroke="#e1775d" stroke-width="1.51"/><path d="M205,1016L301,1119L309,998Z" fill="#ad7367" stroke="#ad7367" stroke-width="1.51"/><path d="M207,523L306,666L317,522Z" fill="#f1b2a4" stroke="#f1b2a4" stroke-width="1.51"/><path d="M151,-144L176,-38L324,-161Z" fill="#bb3b39" stroke="#bb3b39" stroke-width="1.51"/><path d="M205,70L316,175L326,55Z" fill="#dc6d56" stroke="#dc6d56" stroke-width="1.51"/><path d="M324,-161L176,-38L330,-53Z" fill="#c7473f" stroke="#c7473f" stroke-width="1.51"/><path d="M205,70L326,55L330,-53Z" fill="#d45e4c" stroke="#d45e4c" stroke-width="1.51"/><path d="M176,-38L205,70L330,-53Z" fill="#cd5044" stroke="#cd5044" stroke-width="1.51"/><path d="M293,288L210,381L336,431Z" fill="#efa188" stroke="#efa188" stroke-width="1.51"/><path d="M207,523L317,522L336,431Z" fill="#f3b1a0" stroke="#f3b1a0" stroke-width="1.51"/><path d="M210,381L207,523L336,431Z" fill="#f1a793" stroke="#f1a793" stroke-width="1.51"/><path d="M301,1119L210,1171L304,1220Z" fill="#935c50" stroke="#935c50" stroke-width="1.51"/><path d="M206,267L293,288L316,175Z" fill="#e88a6e" stroke="#e88a6e" stroke-width="1.51"/><path d="M196,683L295,780L306,666Z" fill="#e3a495" stroke="#e3a495" stroke-width="1.51"/><path d="M207,523L196,683L306,666Z" fill="#e9a79a" stroke="#e9a79a" stroke-width="1.51"/><path d="M284,878L205,1016L309,998Z" fill="#bd8174" stroke="#bd8174" stroke-width="1.51"/><path d="M181,190L206,267L316,175Z" fill="#e47e64" stroke="#e47e64" stroke-width="1.51"/><path d="M205,70L181,190L316,175Z" fill="#dd7058" stroke="#dd7058" stroke-width="1.51"/><path d="M161,898L205,1016L284,878Z" fill="#c08074" stroke="#c08074" stroke-width="1.51"/><path d="M199,802L284,878L295,780Z" fill="#d49688" stroke="#d49688" stroke-width="1.51"/><path d="M210,1171L142,1271L304,1220Z" fill="#864d42" stroke="#864d42" stroke-width="1.51"/><path d="M196,683L199,802L295,780Z" fill="#db998c" stroke="#db998c" stroke-width="1.51"/><path d="M205,1016L210,1171L301,1119Z" fill="#a06458" stroke="#a06458" stroke-width="1.51"/><path d="M206,267L210,381L293,288Z" fill="#ea9178" stroke="#ea9178" stroke-width="1.51"/><path d="M199,802L161,898L284,878Z" fill="#cc8b7f" stroke="#cc8b7f" stroke-width="1.51"/><path d="M51,1244L-31,1260L142,1271Z" fill="#743430" stroke="#743430" stroke-width="1.51"/><path d="M77,558L44,651L196,683Z" fill="#e1988e" stroke="#e1988e" stroke-width="1.51"/><path d="M196,683L95,802L199,802Z" fill="#d69186" stroke="#d69186" stroke-width="1.51"/><path d="M161,898L70,982L205,1016Z" fill="#b57369" stroke="#b57369" stroke-width="1.51"/><path d="M70,982L59,1151L205,1016Z" fill="#a36058" stroke="#a36058" stroke-width="1.51"/><path d="M176,-38L89,-21L205,70Z" fill="#c9483f" stroke="#c9483f" stroke-width="1.51"/><path d="M89,-21L59,25L205,70Z" fill="#c8473e" stroke="#c8473e" stroke-width="1.51"/><path d="M34,160L181,190L205,70Z" fill="#d66351" stroke="#d66351" stroke-width="1.51"/><path d="M59,25L34,160L205,70Z" fill="#cd5145" stroke="#cd5145" stroke-width="1.51"/><path d="M41,450L77,558L207,523Z" fill="#ea9d92" stroke="#ea9d92" stroke-width="1.51"/><path d="M77,558L196,683L207,523Z" fill="#e8a297" stroke="#e8a297" stroke-width="1.51"/><path d="M206,267L73,335L210,381Z" fill="#e68b76" stroke="#e68b76" stroke-width="1.51"/><path d="M41,450L207,523L210,381Z" fill="#ea9c8c" stroke="#ea9c8c" stroke-width="1.51"/><path d="M73,335L41,450L210,381Z" fill="#e5907e" stroke="#e5907e" stroke-width="1.51"/><path d="M205,1016L59,1151L210,1171Z" fill="#985950" stroke="#985950" stroke-width="1.51"/><path d="M59,1151L142,1271L210,1171Z" fill="#854840" stroke="#854840" stroke-width="1.51"/><path d="M95,802L161,898L199,802Z" fill="#cc877d" stroke="#cc877d" stroke-width="1.51"/><path d="M181,190L73,335L206,267Z" fill="#e27f68" stroke="#e27f68" stroke-width="1.51"/><path d="M44,651L95,802L196,683Z" fill="#d99187" stroke="#d99187" stroke-width="1.51"/><path d="M59,1151L51,1244L142,1271Z" fill="#7d3e38" stroke="#7d3e38" stroke-width="1.51"/><path d="M151,-144L89,-21L176,-38Z" fill="#bf3636" stroke="#bf3636" stroke-width="1.51"/><path d="M34,160L73,335L181,190Z" fill="#dc725c" stroke="#dc725c" stroke-width="1.51"/><path d="M95,802L49,913L161,898Z" fill="#c47d74" stroke="#c47d74" stroke-width="1.51"/><path d="M49,913L70,982L161,898Z" fill="#b8726a" stroke="#b8726a" stroke-width="1.51"/><path d="M35,-179L89,-21L151,-144Z" fill="#b12830" stroke="#b12830" stroke-width="1.51"/><path d="M-23,1104L59,1151L70,982Z" fill="#98524d" stroke="#98524d" stroke-width="1.51"/><path d="M34,160L-88,280L73,335Z" fill="#d86d5b" stroke="#d86d5b" stroke-width="1.51"/><path d="M41,450L-26,516L77,558Z" fill="#e5948b" stroke="#e5948b" stroke-width="1.51"/><path d="M35,-179L-25,-67L89,-21Z" fill="#b31f2d" stroke="#b31f2d" stroke-width="1.51"/><path d="M44,651L-85,769L95,802Z" fill="#d0837c" stroke="#d0837c" stroke-width="1.51"/><path d="M-61,869L49,913L95,802Z" fill="#c07670" stroke="#c07670" stroke-width="1.51"/><path d="M-85,769L-61,869L95,802Z" fill="#c27772" stroke="#c27772" stroke-width="1.51"/><path d="M-25,-67L59,25L89,-21Z" fill="#bd3234" stroke="#bd3234" stroke-width="1.51"/><path d="M-77,189L-88,280L34,160Z" fill="#cc6050" stroke="#cc6050" stroke-width="1.51"/><path d="M-97,49L34,160L59,25Z" fill="#c5433c" stroke="#c5433c" stroke-width="1.51"/><path d="M-92,383L41,450L73,335Z" fill="#de8476" stroke="#de8476" stroke-width="1.51"/><path d="M-52,620L44,651L77,558Z" fill="#de9089" stroke="#de9089" stroke-width="1.51"/><path d="M-26,516L-52,620L77,558Z" fill="#e1928c" stroke="#e1928c" stroke-width="1.51"/><path d="M-98,1050L-23,1104L70,982Z" fill="#9a5450" stroke="#9a5450" stroke-width="1.51"/><path d="M-88,280L-92,383L73,335Z" fill="#d57768" stroke="#d57768" stroke-width="1.51"/><path d="M-31,1260L51,1244L59,1151Z" fill="#7a3835" stroke="#7a3835" stroke-width="1.51"/><path d="M49,913L-98,1050L70,982Z" fill="#aa605b" stroke="#aa605b" stroke-width="1.51"/><path d="M-52,620L-85,769L44,651Z" fill="#d08580" stroke="#d08580" stroke-width="1.51"/><path d="M-61,869L-98,1050L49,913Z" fill="#aa6360" stroke="#aa6360" stroke-width="1.51"/><path d="M-25,-67L-97,49L59,25Z" fill="#b93133" stroke="#b93133" stroke-width="1.51"/><path d="M-23,1104L-31,1260L59,1151Z" fill="#823e3a" stroke="#823e3a" stroke-width="1.51"/><path d="M-97,49L-77,189L34,160Z" fill="#c34d44" stroke="#c34d44" stroke-width="1.51"/><path d="M-37,-207L-25,-67L35,-179Z" fill="#a01229" stroke="#a01229" stroke-width="1.51"/><path d="M-92,383L-26,516L41,450Z" fill="#dc887e" stroke="#dc887e" stroke-width="1.51"/><path d="M-158,1024L-98,1050L-61,869Z" fill="#985958" stroke="#985958" stroke-width="1.51"/><path d="M-145,698L-85,769L-52,620Z" fill="#c37f7c" stroke="#c37f7c" stroke-width="1.51"/><path d="M-182,549L-52,620L-26,516Z" fill="#d28c89" stroke="#d28c89" stroke-width="1.51"/><path d="M-92,383L-182,549L-26,516Z" fill="#d08781" stroke="#d08781" stroke-width="1.51"/><path d="M-214,-25L-97,49L-25,-67Z" fill="#a82730" stroke="#a82730" stroke-width="1.51"/><path d="M-37,-207L-175,-171L-25,-67Z" fill="#950e27" stroke="#950e27" stroke-width="1.51"/><path d="M-191,1178L-31,1260L-23,1104Z" fill="#743737" stroke="#743737" stroke-width="1.51"/><path d="M-98,1050L-191,1178L-23,1104Z" fill="#7f4242" stroke="#7f4242" stroke-width="1.51"/><path d="M-175,-171L-214,-25L-25,-67Z" fill="#9b1028" stroke="#9b1028" stroke-width="1.51"/><path d="M-195,407L-182,549L-92,383Z" fill="#c57e79" stroke="#c57e79" stroke-width="1.51"/><path d="M-188,877L-158,1024L-61,869Z" fill="#9d605f" stroke="#9d605f" stroke-width="1.51"/><path d="M-191,1178L-216,1273L-31,1260Z" fill="#5f2a2c" stroke="#5f2a2c" stroke-width="1.51"/><path d="M-85,769L-188,877L-61,869Z" fill="#ae6e6d" stroke="#ae6e6d" stroke-width="1.51"/><path d="M-182,549L-145,698L-52,620Z" fill="#c58482" stroke="#c58482" stroke-width="1.51"/><path d="M-184,45L-213,183L-97,49Z" fill="#ab3d3b" stroke="#ab3d3b" stroke-width="1.51"/><path d="M-214,-25L-184,45L-97,49Z" fill="#a42e32" stroke="#a42e32" stroke-width="1.51"/><path d="M-97,49L-213,183L-77,189Z" fill="#b64b43" stroke="#b64b43" stroke-width="1.51"/><path d="M-158,1024L-191,1178L-98,1050Z" fill="#7d4445" stroke="#7d4445" stroke-width="1.51"/><path d="M-189,263L-92,383L-88,280Z" fill="#c56d61" stroke="#c56d61" stroke-width="1.51"/><path d="M-200,763L-188,877L-85,769Z" fill="#ab6f6f" stroke="#ab6f6f" stroke-width="1.51"/><path d="M-189,263L-88,280L-77,189Z" fill="#c26254" stroke="#c26254" stroke-width="1.51"/><path d="M-213,183L-189,263L-77,189Z" fill="#b8594d" stroke="#b8594d" stroke-width="1.51"/><path d="M-189,263L-195,407L-92,383Z" fill="#c17268" stroke="#c17268" stroke-width="1.51"/><path d="M-145,698L-200,763L-85,769Z" fill="#b47676" stroke="#b47676" stroke-width="1.51"/><path d="M-182,549L-200,763L-145,698Z" fill="#b77c7c" stroke="#b77c7c" stroke-width="1.51"/><path d="M-188,877L-191,1178L-158,1024Z" fill="#834d4e" stroke="#834d4e" stroke-width="1.51"/><path d="M-216,1273L-191,1178L-188,877Z" fill="#703d40" stroke="#703d40" stroke-width="1.51"/><path d="M-214,-25L-213,183L-184,45Z" fill="#a23536" stroke="#a23536" stroke-width="1.51"/><path d="M-195,407L-200,763L-182,549Z" fill="#bd8384" stroke="#bd8384" stroke-width="1.51"/><path d="M-213,183L-195,407L-189,263Z" fill="#b6645a" stroke="#b6645a" stroke-width="1.51"/><path d="M-200,763L-216,1273L-188,877Z" fill="#8a5456" stroke="#8a5456" stroke-width="1.51"/><path d="M-213,183L-200,763L-195,407Z" fill="#bd7b79" stroke="#bd7b79" stroke-width="1.51"/><path d="M-213,183L-216,1273L-200,763Z" fill="#a97274" stroke="#a97274" stroke-width="1.51"/></svg>