<svg xmlns="http://www.w3.org/2000/svg" width="500" height="800"><path d="M-24,-125L89,-130L162,-141Z" fill="#bc6054" stroke="#bc6054" stroke-width="1.51"/><path d="M390,-144L547,-124L612,-141Z" fill="#815a6f" stroke="#815a6f" stroke-width="1.51"/><path d="M627,203L580,236L659,327Z" fill="#a096b0" stroke="#a096b0" stroke-width="1.51"/><path d="M611,438L639,548L659,327Z" fill="#8ea2c8" stroke="#8ea2c8" stroke-width="1.51"/><path d="M639,548L562,672L662,705Z" fill="#5d91c2" stroke="#5d91c2" stroke-width="1.51"/><path d="M612,-141L547,-124L681,15Z" fill="#834969" stroke="#834969" stroke-width="1.51"/><path d="M547,-124L546,38L681,15Z" fill="#945a73" stroke="#945a73" stroke-width="1.51"/><path d="M627,203L659,327L681,15Z" fill="#987a8c" stroke="#987a8c" stroke-width="1.51"/><path d="M616,115L627,203L681,15Z" fill="#976d81" stroke="#976d81" stroke-width="1.51"/><path d="M573,899L393,927L689,893Z" fill="#2a6aa5" stroke="#2a6aa5" stroke-width="1.51"/><path d="M563,783L573,899L689,893Z" fill="#2469ad" stroke="#2469ad" stroke-width="1.51"/><path d="M639,548L662,705L690,768Z" fill="#4b7cac" stroke="#4b7cac" stroke-width="1.51"/><path d="M659,327L639,548L690,768Z" fill="#7290b8" stroke="#7290b8" stroke-width="1.51"/><path d="M563,783L689,893L690,768Z" fill="#2565a4" stroke="#2565a4" stroke-width="1.51"/><path d="M662,705L563,783L690,768Z" fill="#3074ae" stroke="#3074ae" stroke-width="1.51"/><path d="M681,15L659,327L690,768Z" fill="#8d94b2" stroke="#8d94b2" stroke-width="1.51"/><path d="M571,336L611,438L659,327Z" fill="#9ba8cc" stroke="#9ba8cc" stroke-width="1.51"/><path d="M546,38L616,115L681,15Z" fill="#99667e" stroke="#99667e" stroke-width="1.51"/><path d="M580,236L571,336L659,327Z" fill="#a1a4c0" stroke="#a1a4c0" stroke-width="1.51"/><path d="M562,672L563,783L662,705Z" fill="#4387be" stroke="#4387be" stroke-width="1.51"/><path d="M611,438L538,530L639,548Z" fill="#89aad2" stroke="#89aad2" stroke-width="1.51"/><path d="M546,38L546,91L616,115Z" fill="#a27889" stroke="#a27889" stroke-width="1.51"/><path d="M538,530L562,672L639,548Z" fill="#75a4ce" stroke="#75a4ce" stroke-width="1.51"/><path d="M546,91L580,236L616,115Z" fill="#a68897" stroke="#a68897" stroke-width="1.51"/><path d="M616,115L580,236L627,203Z" fill="#a48a9f" stroke="#a48a9f" stroke-width="1.51"/><path d="M571,336L495,465L611,438Z" fill="#9fbad9" stroke="#9fbad9" stroke-width="1.51"/><path d="M495,465L538,530L611,438Z" fill="#94b8d8" stroke="#94b8d8" stroke-width="1.51"/><path d="M392,-41L546,38L547,-124Z" fill="#a56e7b" stroke="#a56e7b" stroke-width="1.51"/><path d="M538,530L383,655L562,672Z" fill="#7eb6d6" stroke="#7eb6d6" stroke-width="1.51"/><path d="M563,783L406,803L573,899Z" fill="#3f85bd" stroke="#3f85bd" stroke-width="1.51"/><path d="M414,325L571,336L580,236Z" fill="#aeb9c9" stroke="#aeb9c9" stroke-width="1.51"/><path d="M445,184L414,325L580,236Z" fill="#bdbbc2" stroke="#bdbbc2" stroke-width="1.51"/><path d="M546,91L445,184L580,236Z" fill="#b09da4" stroke="#b09da4" stroke-width="1.51"/><path d="M404,537L383,655L538,530Z" fill="#9fcae1" stroke="#9fcae1" stroke-width="1.51"/><path d="M562,672L406,803L563,783Z" fill="#4a95c4" stroke="#4a95c4" stroke-width="1.51"/><path d="M414,325L495,465L571,336Z" fill="#b2cadd" stroke="#b2cadd" stroke-width="1.51"/><path d="M406,803L393,927L573,899Z" fill="#558abc" stroke="#558abc" stroke-width="1.51"/><path d="M383,655L406,803L562,672Z" fill="#72afd2" stroke="#72afd2" stroke-width="1.51"/><path d="M389,70L546,91L546,38Z" fill="#b2888f" stroke="#b2888f" stroke-width="1.51"/><path d="M392,-41L389,70L546,38Z" fill="#be8b8d" stroke="#be8b8d" stroke-width="1.51"/><path d="M390,-144L392,-41L547,-124Z" fill="#a3727b" stroke="#a3727b" stroke-width="1.51"/><path d="M389,70L445,184L546,91Z" fill="#c0a09e" stroke="#c0a09e" stroke-width="1.51"/><path d="M495,465L404,537L538,530Z" fill="#a3c9e1" stroke="#a3c9e1" stroke-width="1.51"/><path d="M414,325L379,434L495,465Z" fill="#c6deeb" stroke="#c6deeb" stroke-width="1.51"/><path d="M379,434L404,537L495,465Z" fill="#bbd9e9" stroke="#bbd9e9" stroke-width="1.51"/><path d="M162,-141L319,-107L390,-144Z" fill="#be8284" stroke="#be8284" stroke-width="1.51"/><path d="M325,596L383,655L404,537Z" fill="#b2d4e7" stroke="#b2d4e7" stroke-width="1.51"/><path d="M323,881L393,927L406,803Z" fill="#779bc7" stroke="#779bc7" stroke-width="1.51"/><path d="M389,70L277,147L445,184Z" fill="#ddb6ac" stroke="#ddb6ac" stroke-width="1.51"/><path d="M277,147L301,233L445,184Z" fill="#e9c9be" stroke="#e9c9be" stroke-width="1.51"/><path d="M301,233L414,325L445,184Z" fill="#dbcfcc" stroke="#dbcfcc" stroke-width="1.51"/><path d="M269,22L389,70L392,-41Z" fill="#d79994" stroke="#d79994" stroke-width="1.51"/><path d="M390,-144L319,-107L392,-41Z" fill="#bb7f82" stroke="#bb7f82" stroke-width="1.51"/><path d="M323,881L157,945L393,927Z" fill="#8598bc" stroke="#8598bc" stroke-width="1.51"/><path d="M379,434L348,441L404,537Z" fill="#cde2ee" stroke="#cde2ee" stroke-width="1.51"/><path d="M383,655L302,681L406,803Z" fill="#92bfdc" stroke="#92bfdc" stroke-width="1.51"/><path d="M302,681L296,808L406,803Z" fill="#90b7d8" stroke="#90b7d8" stroke-width="1.51"/><path d="M327,327L379,434L414,325Z" fill="#dce4e9" stroke="#dce4e9" stroke-width="1.51"/><path d="M301,233L327,327L414,325Z" fill="#e7e0dd" stroke="#e7e0dd" stroke-width="1.51"/><path d="M327,327L348,441L379,434Z" fill="#e1ecf3" stroke="#e1ecf3" stroke-width="1.51"/><path d="M348,441L325,596L404,537Z" fill="#c9e0ee" stroke="#c9e0ee" stroke-width="1.51"/><path d="M296,808L323,881L406,803Z" fill="#87a9d1" stroke="#87a9d1" stroke-width="1.51"/><path d="M319,-107L269,22L392,-41Z" fill="#d58e8b" stroke="#d58e8b" stroke-width="1.51"/><path d="M269,22L277,147L389,70Z" fill="#e6aea2" stroke="#e6aea2" stroke-width="1.51"/><path d="M325,596L302,681L383,655Z" fill="#afd2e6" stroke="#afd2e6" stroke-width="1.51"/><path d="M207,565L325,596L348,441Z" fill="#d6e7f1" stroke="#d6e7f1" stroke-width="1.51"/><path d="M190,470L207,565L348,441Z" fill="#e8eff4" stroke="#e8eff4" stroke-width="1.51"/><path d="M327,327L176,364L348,441Z" fill="#f1f1f1" stroke="#f1f1f1" stroke-width="1.51"/><path d="M176,364L190,470L348,441Z" fill="#f4f3f3" stroke="#f4f3f3" stroke-width="1.51"/><path d="M269,22L230,134L277,147Z" fill="#f1b9aa" stroke="#f1b9aa" stroke-width="1.51"/><path d="M161,-37L269,22L319,-107Z" fill="#e2958d" stroke="#e2958d" stroke-width="1.51"/><path d="M223,650L302,681L325,596Z" fill="#bbd7e8" stroke="#bbd7e8" stroke-width="1.51"/><path d="M301,233L186,238L327,327Z" fill="#f6e2d8" stroke="#f6e2d8" stroke-width="1.51"/><path d="M186,238L176,364L327,327Z" fill="#fbe9de" stroke="#fbe9de" stroke-width="1.51"/><path d="M180,832L157,945L323,881Z" fill="#97a0c1" stroke="#97a0c1" stroke-width="1.51"/><path d="M207,565L223,650L325,596Z" fill="#cce1ed" stroke="#cce1ed" stroke-width="1.51"/><path d="M223,650L296,808L302,681Z" fill="#a9c9e0" stroke="#a9c9e0" stroke-width="1.51"/><path d="M296,808L180,832L323,881Z" fill="#97aed3" stroke="#97aed3" stroke-width="1.51"/><path d="M162,-141L161,-37L319,-107Z" fill="#d2867f" stroke="#d2867f" stroke-width="1.51"/><path d="M230,134L186,238L277,147Z" fill="#facbb8" stroke="#facbb8" stroke-width="1.51"/><path d="M223,650L180,832L296,808Z" fill="#a5bed7" stroke="#a5bed7" stroke-width="1.51"/><path d="M277,147L186,238L301,233Z" fill="#f9d6c6" stroke="#f9d6c6" stroke-width="1.51"/><path d="M92,74L230,134L269,22Z" fill="#f0aa97" stroke="#f0aa97" stroke-width="1.51"/><path d="M161,-37L92,74L269,22Z" fill="#e99885" stroke="#e99885" stroke-width="1.51"/><path d="M60,668L47,795L180,832Z" fill="#aca0ad" stroke="#aca0ad" stroke-width="1.51"/><path d="M119,254L176,364L186,238Z" fill="#fddcc7" stroke="#fddcc7" stroke-width="1.51"/><path d="M60,668L180,832L223,650Z" fill="#b4bcc8" stroke="#b4bcc8" stroke-width="1.51"/><path d="M207,565L106,598L223,650Z" fill="#d1d7da" stroke="#d1d7da" stroke-width="1.51"/><path d="M92,74L186,238L230,134Z" fill="#f8bba2" stroke="#f8bba2" stroke-width="1.51"/><path d="M113,-26L92,74L161,-37Z" fill="#e48772" stroke="#e48772" stroke-width="1.51"/><path d="M92,74L119,254L186,238Z" fill="#f9bda0" stroke="#f9bda0" stroke-width="1.51"/><path d="M106,598L60,668L223,650Z" fill="#cac6c7" stroke="#cac6c7" stroke-width="1.51"/><path d="M59,488L106,598L190,470Z" fill="#e8d4cc" stroke="#e8d4cc" stroke-width="1.51"/><path d="M190,470L106,598L207,565Z" fill="#e1dedc" stroke="#e1dedc" stroke-width="1.51"/><path d="M89,-130L161,-37L162,-141Z" fill="#cc766a" stroke="#cc766a" stroke-width="1.51"/><path d="M119,254L62,318L176,364Z" fill="#fbd3bd" stroke="#fbd3bd" stroke-width="1.51"/><path d="M34,905L157,945L180,832Z" fill="#9b8ba2" stroke="#9b8ba2" stroke-width="1.51"/><path d="M176,364L59,488L190,470Z" fill="#f5e1d7" stroke="#f5e1d7" stroke-width="1.51"/><path d="M89,-130L113,-26L161,-37Z" fill="#d97767" stroke="#d97767" stroke-width="1.51"/><path d="M62,318L59,488L176,364Z" fill="#fad6c6" stroke="#fad6c6" stroke-width="1.51"/><path d="M47,795L34,905L180,832Z" fill="#a48da2" stroke="#a48da2" stroke-width="1.51"/><path d="M34,905L4,946L157,945Z" fill="#937181" stroke="#937181" stroke-width="1.51"/><path d="M-40,350L59,488L62,318Z" fill="#f5bdac" stroke="#f5bdac" stroke-width="1.51"/><path d="M-31,79L-61,231L92,74Z" fill="#e58064" stroke="#e58064" stroke-width="1.51"/><path d="M59,488L3,565L106,598Z" fill="#dfbdb2" stroke="#dfbdb2" stroke-width="1.51"/><path d="M89,-130L-24,-125L113,-26Z" fill="#c86051" stroke="#c86051" stroke-width="1.51"/><path d="M-31,79L92,74L113,-26Z" fill="#e37d62" stroke="#e37d62" stroke-width="1.51"/><path d="M92,74L-61,231L119,254Z" fill="#f3a382" stroke="#f3a382" stroke-width="1.51"/><path d="M-61,231L62,318L119,254Z" fill="#f5b397" stroke="#f5b397" stroke-width="1.51"/><path d="M-24,-125L-64,-20L113,-26Z" fill="#cb5045" stroke="#cb5045" stroke-width="1.51"/><path d="M-64,-20L-31,79L113,-26Z" fill="#d5624f" stroke="#d5624f" stroke-width="1.51"/><path d="M3,565L60,668L106,598Z" fill="#d1b5ae" stroke="#d1b5ae" stroke-width="1.51"/><path d="M-40,350L-65,472L59,488Z" fill="#ebada1" stroke="#ebada1" stroke-width="1.51"/><path d="M-51,707L47,795L60,668Z" fill="#b19197" stroke="#b19197" stroke-width="1.51"/><path d="M-38,837L34,905L47,795Z" fill="#9f758b" stroke="#9f758b" stroke-width="1.51"/><path d="M3,565L-51,707L60,668Z" fill="#c39c9b" stroke="#c39c9b" stroke-width="1.51"/><path d="M-61,231L-40,350L62,318Z" fill="#f0a58e" stroke="#f0a58e" stroke-width="1.51"/><path d="M-65,472L3,565L59,488Z" fill="#e2ada3" stroke="#e2ada3" stroke-width="1.51"/><path d="M-51,707L-38,837L47,795Z" fill="#a47988" stroke="#a47988" stroke-width="1.51"/><path d="M-38,837L4,946L34,905Z" fill="#946479" stroke="#946479" stroke-width="1.51"/><path d="M-51,707L-112,783L-38,837Z" fill="#9d6b7c" stroke="#9d6b7c" stroke-width="1.51"/><path d="M-137,601L-51,707L3,565Z" fill="#c08c8c" stroke="#c08c8c" stroke-width="1.51"/><path d="M-65,472L-137,601L3,565Z" fill="#d19490" stroke="#d19490" stroke-width="1.51"/><path d="M-38,837L-126,945L4,946Z" fill="#8a5068" stroke="#8a5068" stroke-width="1.51"/><path d="M-61,231L-177,339L-40,350Z" fill="#e28c7e" stroke="#e28c7e" stroke-width="1.51"/><path d="M-64,-20L-172,27L-31,79Z" fill="#c6443d" stroke="#c6443d" stroke-width="1.51"/><path d="M-136,223L-61,231L-31,79Z" fill="#de765f" stroke="#de765f" stroke-width="1.51"/><path d="M-177,120L-136,223L-31,79Z" fill="#d15f4e" stroke="#d15f4e" stroke-width="1.51"/><path d="M-178,-82L-64,-20L-24,-125Z" fill="#b2262f" stroke="#b2262f" stroke-width="1.51"/><path d="M-136,223L-177,339L-61,231Z" fill="#d97c6e" stroke="#d97c6e" stroke-width="1.51"/><path d="M-177,339L-65,472L-40,350Z" fill="#e4968d" stroke="#e4968d" stroke-width="1.51"/><path d="M-172,27L-177,120L-31,79Z" fill="#c4473f" stroke="#c4473f" stroke-width="1.51"/><path d="M-177,339L-194,457L-65,472Z" fill="#d08988" stroke="#d08988" stroke-width="1.51"/><path d="M-112,783L-126,945L-38,837Z" fill="#90536f" stroke="#90536f" stroke-width="1.51"/><path d="M-174,711L-112,783L-51,707Z" fill="#9d6776" stroke="#9d6776" stroke-width="1.51"/><path d="M-137,601L-174,711L-51,707Z" fill="#aa717b" stroke="#aa717b" stroke-width="1.51"/><path d="M-194,457L-137,601L-65,472Z" fill="#ca8686" stroke="#ca8686" stroke-width="1.51"/><path d="M-178,-82L-172,27L-64,-20Z" fill="#af242e" stroke="#af242e" stroke-width="1.51"/><path d="M-174,711L-126,945L-112,783Z" fill="#89516c" stroke="#89516c" stroke-width="1.51"/><path d="M-177,120L-177,339L-136,223Z" fill="#c56d60" stroke="#c56d60" stroke-width="1.51"/><path d="M-194,457L-174,711L-137,601Z" fill="#a8767e" stroke="#a8767e" stroke-width="1.51"/><path d="M-177,120L-194,457L-177,339Z" fill="#c17973" stroke="#c17973" stroke-width="1.51"/><path d="M-178,-82L-177,120L-172,27Z" fill="#a62f33" stroke="#a62f33" stroke-width="1.51"/><path d="M-178,-82L-194,457L-177,120Z" fill="#b85a4f" stroke="#b85a4f" stroke-width="1.51"/></svg>